<mxfile host="65bd71144e" modified="2021-02-05T03:28:45.324Z" agent="5.0 (Windows NT 10.0; Win64; x64) AppleWebKit/537.36 (KHTML, like Gecko) Code/1.53.0 Chrome/87.0.4280.141 Electron/11.2.1 Safari/537.36" etag="y1cpzEK04sgFsBuDdLxw" version="13.10.0" type="embed">
    <diagram id="lWpPPqudr1RSAxVssQub" name="페이지-1">
        <mxGraphModel dx="1333" dy="1379" grid="1" gridSize="10" guides="1" tooltips="1" connect="1" arrows="1" fold="1" page="1" pageScale="1" pageWidth="1169" pageHeight="827" background="#ffffff" math="0" shadow="0">
            <root>
                <mxCell id="0"/>
                <mxCell id="1" parent="0"/>
                <mxCell id="11" value="" style="rounded=0;whiteSpace=wrap;html=1;" parent="1" vertex="1">
                    <mxGeometry x="440" y="280" width="240" height="240" as="geometry"/>
                </mxCell>
                <mxCell id="12" value="" style="group" parent="1" vertex="1" connectable="0">
                    <mxGeometry x="500" y="360" width="120" height="120" as="geometry"/>
                </mxCell>
                <mxCell id="9" value="&lt;font style=&quot;font-size: 14px&quot;&gt;&lt;b&gt;Cortex-M3&lt;br&gt;STM32F103&lt;br&gt;RBT6&lt;br&gt;&lt;br&gt;&lt;/b&gt;&lt;/font&gt;" style="whiteSpace=wrap;html=1;" parent="12" vertex="1">
                    <mxGeometry width="120" height="120" as="geometry"/>
                </mxCell>
                <mxCell id="10" value="&lt;font color=&quot;#9933ff&quot; style=&quot;font-size: 8px&quot;&gt;&amp;nbsp;72MHz / 64-LQFP&lt;br&gt;128KB Flash / 20KB sram&lt;br&gt;&lt;/font&gt;" style="text;html=1;strokeColor=none;fillColor=none;align=center;verticalAlign=middle;whiteSpace=wrap;rounded=0;" parent="12" vertex="1">
                    <mxGeometry y="80" width="120" height="30" as="geometry"/>
                </mxCell>
                <mxCell id="13" value="Nucleo-64&lt;br&gt;STM32F103RB" style="text;html=1;strokeColor=none;fillColor=none;align=center;verticalAlign=middle;whiteSpace=wrap;rounded=0;" parent="1" vertex="1">
                    <mxGeometry x="440" y="280" width="100" height="40" as="geometry"/>
                </mxCell>
                <mxCell id="14" value="&lt;font style=&quot;font-size: 10px&quot;&gt;Embedded&lt;/font&gt;&lt;br&gt;&lt;b&gt;ST-LINK/V2&lt;/b&gt;" style="rounded=0;whiteSpace=wrap;html=1;" parent="1" vertex="1">
                    <mxGeometry x="519.5" y="320" width="80.5" height="40" as="geometry"/>
                </mxCell>
                <mxCell id="15" value="&lt;b&gt;&lt;font style=&quot;font-size: 16px&quot;&gt;LiDAR&lt;/font&gt;&lt;/b&gt;" style="whiteSpace=wrap;html=1;" parent="1" vertex="1">
                    <mxGeometry x="540" y="629.04" width="120" height="60" as="geometry"/>
                </mxCell>
                <mxCell id="16" value="&lt;b&gt;&lt;span style=&quot;font-size: 16px&quot;&gt;IMU&lt;/span&gt;&lt;br&gt;&lt;/b&gt;&lt;font style=&quot;font-size: 12px&quot;&gt;MPU-9250&lt;/font&gt;" style="rounded=0;whiteSpace=wrap;html=1;" parent="1" vertex="1">
                    <mxGeometry x="220" y="340" width="120" height="60" as="geometry"/>
                </mxCell>
                <mxCell id="18" value="" style="shape=flexArrow;endArrow=classic;html=1;fillColor=#FF0000;strokeColor=#FF0000;exitX=1;exitY=0.65;exitDx=0;exitDy=0;exitPerimeter=0;" parent="1" source="20" edge="1">
                    <mxGeometry width="50" height="50" relative="1" as="geometry">
                        <mxPoint x="180" y="146" as="sourcePoint"/>
                        <mxPoint x="300" y="146" as="targetPoint"/>
                    </mxGeometry>
                </mxCell>
                <mxCell id="20" value="&lt;font style=&quot;font-size: 14px&quot;&gt;3s ~ 4s&lt;br&gt;&lt;font style=&quot;font-weight: bold&quot;&gt;Li-po battery&lt;/font&gt;&lt;/font&gt;" style="text;html=1;strokeColor=none;fillColor=none;align=center;verticalAlign=middle;whiteSpace=wrap;rounded=0;" parent="1" vertex="1">
                    <mxGeometry y="120" width="100" height="40" as="geometry"/>
                </mxCell>
                <mxCell id="22" value="I2C" style="text;html=1;strokeColor=none;fillColor=none;align=center;verticalAlign=middle;whiteSpace=wrap;rounded=0;" parent="1" vertex="1">
                    <mxGeometry x="370" y="350" width="40" height="20" as="geometry"/>
                </mxCell>
                <mxCell id="23" value="&lt;b&gt;&lt;font style=&quot;font-size: 16px&quot;&gt;GPS&lt;/font&gt;&lt;br&gt;&lt;/b&gt;&lt;font style=&quot;font-size: 12px&quot;&gt;PRF-G189&lt;/font&gt;" style="rounded=0;whiteSpace=wrap;html=1;" parent="1" vertex="1">
                    <mxGeometry x="220" y="452" width="120" height="60" as="geometry"/>
                </mxCell>
                <mxCell id="24" value="&lt;b&gt;&lt;font style=&quot;font-size: 16px&quot;&gt;nRF24L01+&lt;/font&gt;&lt;br&gt;&lt;/b&gt;&lt;span style=&quot;font-size: 10px&quot;&gt;NRF24L01 + PA + LNA&lt;br&gt;&lt;/span&gt;&lt;span style=&quot;color: rgb(153 , 51 , 255) ; font-size: 10px&quot;&gt;250kbps ~ 2Mbps&lt;/span&gt;&lt;span style=&quot;font-size: 10px&quot;&gt;&lt;br&gt;&lt;/span&gt;" style="rounded=0;whiteSpace=wrap;html=1;" parent="1" vertex="1">
                    <mxGeometry x="740" y="370" width="120" height="60" as="geometry"/>
                </mxCell>
                <mxCell id="25" value="" style="verticalLabelPosition=bottom;shadow=0;dashed=0;align=center;html=1;verticalAlign=top;shape=mxgraph.electrical.radio.aerial_-_antenna_2;rotation=0;" parent="1" vertex="1">
                    <mxGeometry x="785.75" y="270" width="29.5" height="50" as="geometry"/>
                </mxCell>
                <mxCell id="29" value="Serial" style="text;html=1;strokeColor=none;fillColor=none;align=center;verticalAlign=middle;whiteSpace=wrap;rounded=0;" parent="1" vertex="1">
                    <mxGeometry x="370" y="464" width="40" height="20" as="geometry"/>
                </mxCell>
                <mxCell id="32" value="&lt;b&gt;&lt;font style=&quot;font-size: 12px&quot;&gt;ANT&lt;/font&gt;&lt;/b&gt;" style="text;html=1;strokeColor=none;fillColor=none;align=center;verticalAlign=middle;whiteSpace=wrap;rounded=0;" parent="1" vertex="1">
                    <mxGeometry x="760.5" y="250" width="80" height="20" as="geometry"/>
                </mxCell>
                <mxCell id="35" value="&lt;font color=&quot;#ff8000&quot; style=&quot;font-size: 24px&quot;&gt;&lt;b&gt;User&lt;br&gt;Control Signal&lt;/b&gt;&lt;/font&gt;" style="text;html=1;strokeColor=none;fillColor=none;align=center;verticalAlign=middle;whiteSpace=wrap;rounded=0;shadow=0;glass=0;sketch=0;fontSize=14;fontColor=#000000;" parent="1" vertex="1">
                    <mxGeometry x="940" y="250" width="200" height="60" as="geometry"/>
                </mxCell>
                <mxCell id="38" value="" style="endArrow=none;dashed=1;html=1;dashPattern=1 3;strokeWidth=2;" parent="1" edge="1">
                    <mxGeometry width="50" height="50" relative="1" as="geometry">
                        <mxPoint x="880" y="720" as="sourcePoint"/>
                        <mxPoint x="880" y="80" as="targetPoint"/>
                    </mxGeometry>
                </mxCell>
                <mxCell id="40" value="&lt;font style=&quot;font-size: 14px&quot; color=&quot;#ff0000&quot;&gt;11.1 ~ 14.8Vdc&lt;/font&gt;" style="text;html=1;strokeColor=none;fillColor=none;align=center;verticalAlign=middle;whiteSpace=wrap;rounded=0;" parent="1" vertex="1">
                    <mxGeometry x="170" y="120" width="120" height="20" as="geometry"/>
                </mxCell>
                <mxCell id="41" value="" style="rounded=0;whiteSpace=wrap;html=1;" parent="1" vertex="1">
                    <mxGeometry x="300" y="120" width="120" height="60" as="geometry"/>
                </mxCell>
                <mxCell id="44" value="" style="endArrow=none;html=1;strokeColor=#FF0000;strokeWidth=5;fillColor=#FF0000;exitX=0.5;exitY=0;exitDx=0;exitDy=0;entryX=1;entryY=0.5;entryDx=0;entryDy=0;" parent="1" source="11" target="41" edge="1">
                    <mxGeometry width="50" height="50" relative="1" as="geometry">
                        <mxPoint x="160" y="360" as="sourcePoint"/>
                        <mxPoint x="260" y="180" as="targetPoint"/>
                        <Array as="points">
                            <mxPoint x="560" y="150"/>
                        </Array>
                    </mxGeometry>
                </mxCell>
                <mxCell id="47" value="&lt;font style=&quot;font-size: 14px&quot; color=&quot;#ff0000&quot;&gt;5Vdc&lt;/font&gt;" style="text;html=1;strokeColor=none;fillColor=none;align=center;verticalAlign=middle;whiteSpace=wrap;rounded=0;" parent="1" vertex="1">
                    <mxGeometry x="440" y="130" width="120" height="20" as="geometry"/>
                </mxCell>
                <mxCell id="48" value="" style="endArrow=none;html=1;strokeColor=#FF0000;strokeWidth=2;fillColor=#FF0000;exitX=0;exitY=0.5;exitDx=0;exitDy=0;jumpSize=6;entryX=0.5;entryY=1;entryDx=0;entryDy=0;" parent="1" source="15" target="23" edge="1">
                    <mxGeometry width="50" height="50" relative="1" as="geometry">
                        <mxPoint x="310" y="570" as="sourcePoint"/>
                        <mxPoint x="140" y="750" as="targetPoint"/>
                        <Array as="points">
                            <mxPoint x="280" y="660"/>
                        </Array>
                    </mxGeometry>
                </mxCell>
                <mxCell id="49" value="" style="endArrow=none;html=1;strokeColor=#FF0000;strokeWidth=2;fillColor=#FF0000;entryX=0;entryY=1;entryDx=0;entryDy=0;exitX=0.5;exitY=0;exitDx=0;exitDy=0;" parent="1" source="16" target="13" edge="1">
                    <mxGeometry width="50" height="50" relative="1" as="geometry">
                        <mxPoint x="160" y="420" as="sourcePoint"/>
                        <mxPoint x="360" y="520" as="targetPoint"/>
                        <Array as="points">
                            <mxPoint x="280" y="320"/>
                        </Array>
                    </mxGeometry>
                </mxCell>
                <mxCell id="51" value="" style="endArrow=none;html=1;strokeColor=#FF0000;strokeWidth=2;fillColor=#FF0000;entryX=0.5;entryY=0;entryDx=0;entryDy=0;exitX=0.5;exitY=1;exitDx=0;exitDy=0;" parent="1" source="16" target="23" edge="1">
                    <mxGeometry width="50" height="50" relative="1" as="geometry">
                        <mxPoint x="260" y="520" as="sourcePoint"/>
                        <mxPoint x="310" y="470" as="targetPoint"/>
                    </mxGeometry>
                </mxCell>
                <mxCell id="52" value="Serial" style="text;html=1;strokeColor=none;fillColor=none;align=center;verticalAlign=middle;whiteSpace=wrap;rounded=0;" parent="1" vertex="1">
                    <mxGeometry x="598" y="560" width="40" height="20" as="geometry"/>
                </mxCell>
                <mxCell id="53" value="2.4GHz" style="text;html=1;strokeColor=none;fillColor=none;align=center;verticalAlign=middle;whiteSpace=wrap;rounded=0;" parent="1" vertex="1">
                    <mxGeometry x="880" y="272" width="53" height="20" as="geometry"/>
                </mxCell>
                <mxCell id="54" value="&lt;font style=&quot;font-size: 12px&quot; color=&quot;#ff0000&quot;&gt;3.3Vdc&lt;/font&gt;" style="text;html=1;strokeColor=none;fillColor=none;align=center;verticalAlign=middle;whiteSpace=wrap;rounded=0;" parent="1" vertex="1">
                    <mxGeometry x="300" y="300" width="120" height="20" as="geometry"/>
                </mxCell>
                <mxCell id="56" value="" style="endArrow=classic;startArrow=classic;html=1;strokeWidth=2;fillColor=#FF0000;exitX=1;exitY=0.5;exitDx=0;exitDy=0;entryX=0;entryY=0.844;entryDx=0;entryDy=0;entryPerimeter=0;" parent="1" source="23" target="11" edge="1">
                    <mxGeometry width="50" height="50" relative="1" as="geometry">
                        <mxPoint x="350" y="690" as="sourcePoint"/>
                        <mxPoint x="390" y="650" as="targetPoint"/>
                    </mxGeometry>
                </mxCell>
                <mxCell id="57" value="" style="endArrow=classic;startArrow=classic;html=1;strokeWidth=2;fillColor=#FF0000;entryX=0.002;entryY=0.369;entryDx=0;entryDy=0;entryPerimeter=0;" parent="1" target="11" edge="1">
                    <mxGeometry width="50" height="50" relative="1" as="geometry">
                        <mxPoint x="340" y="369" as="sourcePoint"/>
                        <mxPoint x="400" y="369.65999999999997" as="targetPoint"/>
                    </mxGeometry>
                </mxCell>
                <mxCell id="64" value="" style="endArrow=classic;startArrow=classic;html=1;strokeWidth=2;fillColor=#FF0000;entryX=0.5;entryY=0;entryDx=0;entryDy=0;exitX=0.667;exitY=1;exitDx=0;exitDy=0;exitPerimeter=0;" parent="1" source="11" target="15" edge="1">
                    <mxGeometry width="50" height="50" relative="1" as="geometry">
                        <mxPoint x="600" y="540" as="sourcePoint"/>
                        <mxPoint x="611.5" y="599.5999999999999" as="targetPoint"/>
                    </mxGeometry>
                </mxCell>
                <mxCell id="65" value="" style="endArrow=classic;startArrow=classic;html=1;strokeColor=#000000;strokeWidth=1;fillColor=#FF0000;entryX=0;entryY=0.5;entryDx=0;entryDy=0;exitX=1;exitY=0.5;exitDx=0;exitDy=0;" parent="1" source="11" target="24" edge="1">
                    <mxGeometry width="50" height="50" relative="1" as="geometry">
                        <mxPoint x="590" y="330" as="sourcePoint"/>
                        <mxPoint x="640" y="280" as="targetPoint"/>
                    </mxGeometry>
                </mxCell>
                <mxCell id="66" value="" style="endArrow=classic;html=1;strokeColor=#000000;strokeWidth=1;fillColor=#FF0000;" parent="1" edge="1">
                    <mxGeometry width="50" height="50" relative="1" as="geometry">
                        <mxPoint x="940" y="290" as="sourcePoint"/>
                        <mxPoint x="840" y="290" as="targetPoint"/>
                    </mxGeometry>
                </mxCell>
                <mxCell id="67" value="ESC&lt;br&gt;dji-NAZA" style="rounded=0;whiteSpace=wrap;html=1;" parent="1" vertex="1">
                    <mxGeometry x="120" y="560" width="80" height="120" as="geometry"/>
                </mxCell>
                <mxCell id="68" value="" style="shape=flexArrow;endArrow=classic;html=1;fillColor=#FF0000;strokeColor=#FF0000;entryX=0.5;entryY=0;entryDx=0;entryDy=0;" parent="1" target="67" edge="1">
                    <mxGeometry width="50" height="50" relative="1" as="geometry">
                        <mxPoint x="160" y="150" as="sourcePoint"/>
                        <mxPoint x="280" y="180" as="targetPoint"/>
                    </mxGeometry>
                </mxCell>
                <mxCell id="69" value="" style="endArrow=classic;startArrow=classic;html=1;strokeColor=#000000;strokeWidth=2;fillColor=#FF0000;exitX=1;exitY=0.5;exitDx=0;exitDy=0;entryX=0.167;entryY=1;entryDx=0;entryDy=0;entryPerimeter=0;" parent="1" source="67" target="11" edge="1">
                    <mxGeometry width="50" height="50" relative="1" as="geometry">
                        <mxPoint x="340" y="280" as="sourcePoint"/>
                        <mxPoint x="480" y="530" as="targetPoint"/>
                        <Array as="points">
                            <mxPoint x="480" y="620"/>
                        </Array>
                    </mxGeometry>
                </mxCell>
                <mxCell id="70" value="PWM" style="text;html=1;strokeColor=none;fillColor=none;align=center;verticalAlign=middle;whiteSpace=wrap;rounded=0;" parent="1" vertex="1">
                    <mxGeometry x="350" y="601" width="40" height="20" as="geometry"/>
                </mxCell>
                <mxCell id="72" value="" style="endArrow=classic;html=1;strokeColor=#000000;strokeWidth=1;fillColor=#FF0000;exitX=0.5;exitY=1;exitDx=0;exitDy=0;exitPerimeter=0;entryX=0.5;entryY=0;entryDx=0;entryDy=0;" parent="1" source="25" target="24" edge="1">
                    <mxGeometry width="50" height="50" relative="1" as="geometry">
                        <mxPoint x="730" y="300" as="sourcePoint"/>
                        <mxPoint x="780" y="250" as="targetPoint"/>
                    </mxGeometry>
                </mxCell>
                <mxCell id="73" value="SPI" style="text;html=1;strokeColor=none;fillColor=none;align=center;verticalAlign=middle;whiteSpace=wrap;rounded=0;" parent="1" vertex="1">
                    <mxGeometry x="690" y="382" width="40" height="20" as="geometry"/>
                </mxCell>
                <mxCell id="74" value="" style="endArrow=none;html=1;strokeWidth=2;fillColor=#FF0000;entryX=0.25;entryY=0;entryDx=0;entryDy=0;exitX=1;exitY=0.25;exitDx=0;exitDy=0;strokeColor=#FF0000;" parent="1" source="11" target="24" edge="1">
                    <mxGeometry width="50" height="50" relative="1" as="geometry">
                        <mxPoint x="681" y="323" as="sourcePoint"/>
                        <mxPoint x="610" y="-20" as="targetPoint"/>
                        <Array as="points">
                            <mxPoint x="770" y="340"/>
                        </Array>
                    </mxGeometry>
                </mxCell>
                <mxCell id="75" value="&lt;font style=&quot;font-size: 12px&quot; color=&quot;#ff0000&quot;&gt;3.3Vdc&lt;/font&gt;" style="text;html=1;strokeColor=none;fillColor=none;align=center;verticalAlign=middle;whiteSpace=wrap;rounded=0;" parent="1" vertex="1">
                    <mxGeometry x="680" y="320" width="120" height="20" as="geometry"/>
                </mxCell>
                <mxCell id="76" value="&lt;b&gt;&lt;font style=&quot;font-size: 16px&quot;&gt;X4&lt;/font&gt;&lt;/b&gt;" style="text;html=1;strokeColor=none;fillColor=none;align=center;verticalAlign=middle;whiteSpace=wrap;rounded=0;" parent="1" vertex="1">
                    <mxGeometry x="350" y="621" width="40" height="20" as="geometry"/>
                </mxCell>
                <mxCell id="77" value="" style="endArrow=none;dashed=1;html=1;dashPattern=1 3;strokeWidth=2;" parent="1" edge="1">
                    <mxGeometry width="50" height="50" relative="1" as="geometry">
                        <mxPoint x="880" y="720" as="sourcePoint"/>
                        <mxPoint x="100" y="720" as="targetPoint"/>
                    </mxGeometry>
                </mxCell>
                <mxCell id="78" value="" style="endArrow=none;dashed=1;html=1;dashPattern=1 3;strokeWidth=2;" parent="1" source="80" edge="1">
                    <mxGeometry width="50" height="50" relative="1" as="geometry">
                        <mxPoint x="880" y="80" as="sourcePoint"/>
                        <mxPoint x="100" y="80" as="targetPoint"/>
                    </mxGeometry>
                </mxCell>
                <mxCell id="79" value="" style="endArrow=none;dashed=1;html=1;dashPattern=1 3;strokeWidth=2;" parent="1" edge="1">
                    <mxGeometry width="50" height="50" relative="1" as="geometry">
                        <mxPoint x="100" y="720" as="sourcePoint"/>
                        <mxPoint x="100" y="80" as="targetPoint"/>
                    </mxGeometry>
                </mxCell>
                <mxCell id="80" value="&lt;font style=&quot;font-size: 20px&quot;&gt;&lt;b&gt;Drone FC&lt;/b&gt;&lt;/font&gt;" style="text;html=1;strokeColor=none;fillColor=none;align=center;verticalAlign=middle;whiteSpace=wrap;rounded=0;" parent="1" vertex="1">
                    <mxGeometry x="680" y="60" width="120" height="40" as="geometry"/>
                </mxCell>
                <mxCell id="81" value="" style="endArrow=none;dashed=1;html=1;dashPattern=1 3;strokeWidth=2;" parent="1" target="80" edge="1">
                    <mxGeometry width="50" height="50" relative="1" as="geometry">
                        <mxPoint x="880" y="80" as="sourcePoint"/>
                        <mxPoint x="100" y="80" as="targetPoint"/>
                    </mxGeometry>
                </mxCell>
            </root>
        </mxGraphModel>
    </diagram>
</mxfile>